# xmcd
#
# Track frame offsets:
#	150
#	12447
#	24751
#	34610
#	45362
#	64774
#	81738
#	95043
#	111782
#	119516
#	130184
#	141224
#
# Disc length: 2052 seconds
#
# Revision: 1
# Processed by: cddbd v1.5.1PL2 Copyright (c) Steve Scherf et al.
# Submitted via: audiograbber 1.83.01
#
DISCID=9f08020c
DTITLE=Various Artist - Drifting Cowboy
DYEAR=2005
DGENRE=Country
TTITLE0=Honky Tonk Blues - Waylon Jennings
TTITLE1=Lovesick Blues - Merle Haggard
TTITLE2=There'll Be No Teardrops Tonight - Willie Nelson
TTITLE3=Lonesome Whistle - George Jones
TTITLE4=Move It On Over - George Thorogood And The Destroyers
TTITLE5=I Saw The Light - Nitty Gritty Dirt Band w/Roy Acuff
TTITLE6=You Win Again - Jerry Lee Lewis
TTITLE7=Honky Tonkin' - Townes Van Zandt
TTITLE8=Hey Good Lookin' - Johnny Cash
TTITLE9=Your Cheatin' Heart - Patsy Cline /The Jordanaires
TTITLE10=I'm So Lonesome I Could Cry - Glen Campbell
TTITLE11=Jambalaya (On The Bayou) - Leon Russell
EXTD=A Country Music Tribute To Hank Williams Sr.
EXTT0=
EXTT1=Live
EXTT2=
EXTT3=
EXTT4=
EXTT5=
EXTT6=
EXTT7=
EXTT8=
EXTT9=
EXTT10=
EXTT11=
PLAYORDER=
